<?xml version="1.0" encoding="UTF-8"?>
<svg width="32px" height="32px" viewBox="0 0 32 32" version="1.1" xmlns="http://www.w3.org/2000/svg" xmlns:xlink="http://www.w3.org/1999/xlink">
    <g id="Page-1" stroke="none" stroke-width="1" fill="none" fill-rule="evenodd">
        <g id="bus" transform="translate(1.000000, 1.000000)">
            <circle id="Oval" stroke="#000000" stroke-width="2" fill="#FFFFFF" cx="15" cy="15" r="15"></circle>
            <g id="bus-line" transform="translate(4.218750, 3.750000)">
                <polygon id="Path" points="0 0 22.03125 0 22.03125 22.03125 0 22.03125"></polygon>
                <path d="M15.5859375,18.3305921 L6.4453125,18.3305921 L6.4453125,19.2434211 C6.4453125,19.7475626 6.03607278,20.15625 5.53125,20.15625 L4.6171875,20.15625 C4.11236472,20.15625 3.703125,19.7475626 3.703125,19.2434211 L3.703125,18.3305921 L2.7890625,18.3305921 L2.7890625,11.0279605 L1.875,11.0279605 L1.875,7.37664474 L2.7890625,7.37664474 L2.7890625,4.63815789 C2.7890625,3.62987488 3.60754194,2.8125 4.6171875,2.8125 L17.4140625,2.8125 C18.4237081,2.8125 19.2421875,3.62987488 19.2421875,4.63815789 L19.2421875,7.37664474 L20.15625,7.37664474 L20.15625,11.0279605 L19.2421875,11.0279605 L19.2421875,18.3305921 L18.328125,18.3305921 L18.328125,19.2434211 C18.328125,19.7475626 17.9188853,20.15625 17.4140625,20.15625 L16.5,20.15625 C15.9951772,20.15625 15.5859375,19.7475626 15.5859375,19.2434211 L15.5859375,18.3305921 Z M17.4140625,11.0279605 L17.4140625,4.63815789 L4.6171875,4.63815789 L4.6171875,11.0279605 L17.4140625,11.0279605 Z M17.4140625,12.8536184 L4.6171875,12.8536184 L4.6171875,16.5049342 L17.4140625,16.5049342 L17.4140625,12.8536184 Z M5.53125,13.7664474 L9.1875,13.7664474 L9.1875,15.5921053 L5.53125,15.5921053 L5.53125,13.7664474 Z M12.84375,13.7664474 L16.5,13.7664474 L16.5,15.5921053 L12.84375,15.5921053 L12.84375,13.7664474 Z" id="Shape" fill="#000000" fill-rule="nonzero"></path>
            </g>
        </g>
    </g>
</svg>